<svg width="140" height="120" viewBox="0 0 140 120" fill="none" xmlns="http://www.w3.org/2000/svg">
<path opacity="0.3" d="M121.33 113.51C121.33 116.43 108.57 118.79 92.83 118.79C77.09 118.79 64.33 116.43 64.33 113.51C64.33 112.05 68.18 110.53 73.34 109.66C74.39 109.48 73.91 114.09 75.96 115.66C80.3 118.99 82.75 117.44 85.89 115.66C87.37 114.82 87.86 108.33 88.57 108.29C91.31 108.13 89.82 108.23 92.84 108.23C94.3 108.23 94.26 108.33 95.66 108.29C96.31 108.27 96.31 113.78 97.51 114.79C98.37 115.51 101.08 118.03 103.34 118.03C107.54 118.03 108.99 114.14 109.95 113.48C110.61 113.03 109.64 109.04 110.36 109.12C118.41 110.06 121.33 111.62 121.33 113.51Z" fill="#262626"/>
<g opacity="0.3">
<path opacity="0.3" d="M49.46 34.3901C44.81 34.3901 41.04 37.1001 41.04 40.4401C41.04 43.7801 44.81 46.4901 49.46 46.4901C49.46 46.4901 43.97 42.8001 47.76 36.5701C50.15 32.6401 44.88 37.3601 44.88 37.3601L49.46 34.3901Z" fill="#262626"/>
</g>
<g opacity="0.7">
<path opacity="0.9" d="M51.3 46.4901C47.96 46.4901 45.24 43.7801 45.24 40.4401C45.24 37.1001 47.95 34.3901 51.3 34.3901C54.09 34.3901 55.7 35.2901 56.4 37.8601C56.4 37.8501 50.62 37.8801 51.3 46.4901Z" fill="url(#paint0_linear_996_241)"/>
</g>
<path d="M52.31 48.55H26.4C22.31 48.55 19 45.24 19 41.15V40.37C19 36.29 22.31 32.97 26.4 32.97H51.48C54.66 32.97 57.37 34.97 58.42 37.78" stroke="#8B8B8B" stroke-miterlimit="10" stroke-linecap="round" stroke-linejoin="round"/>
<path d="M108.52 45.7501C111.18 43.2601 113.17 39.9901 114.08 36.1701C116.56 25.8201 110.17 15.4201 99.81 12.9501C89.45 10.4801 79.04 16.8601 76.57 27.2101C74.78 34.6901 77.62 42.1901 83.24 46.7101L85.41 48.2101" stroke="#8B8B8B" stroke-miterlimit="10" stroke-linecap="round" stroke-linejoin="round"/>
<path d="M81.27 44.6601C81.27 44.6601 71.64 47.0101 61.05 39.0901C58.11 36.8901 53.91 37.6101 51.89 40.6801C50.23 43.2101 50.57 46.5601 52.71 48.6801C56.78 52.7101 64.5 58.3601 76.22 58.9001L73.48 109C73.48 113.35 76.12 117.79 80.48 117.74C84.77 117.69 87.25 114.77 88.22 109.92L90.99 91.5301C91.03 90.7201 91.69 90.0901 92.5 90.0901C93.3 90.0901 93.96 90.7201 94.01 91.5101L95.78 110.61C95.78 114.67 99.07 117.96 103.14 117.96C107.2 117.96 110.5 114.67 110.5 110.61L109.58 80.7201" stroke="#8B8B8B" stroke-miterlimit="10" stroke-linecap="round" stroke-linejoin="round"/>
<path d="M79.71 21.0901C85.54 23.2501 88.96 29.4701 87.47 35.6601C86.59 39.2901 83.58 42.3301 80.52 43.9401" stroke="#8B8B8B" stroke-miterlimit="10" stroke-linecap="round" stroke-linejoin="round"/>
<path d="M109.53 80.36H90.54C87.04 80.36 84.19 77.52 84.19 74.01V52.61C84.19 49.11 87.03 46.26 90.54 46.26H109.53C113.03 46.26 115.88 49.1 115.88 52.61V74.01C115.88 77.52 113.04 80.36 109.53 80.36Z" stroke="#8B8B8B" stroke-miterlimit="10" stroke-linecap="round" stroke-linejoin="round"/>
<path d="M113.47 79.2102C113.47 78.9102 115.81 87.6602 109.6 87.1002" stroke="#8B8B8B" stroke-miterlimit="10" stroke-linecap="round" stroke-linejoin="round"/>
<path d="M75.77 66C75.77 66 79.63 67.95 84.19 62.28" stroke="#8B8B8B" stroke-miterlimit="10" stroke-linecap="round" stroke-linejoin="round"/>
<path d="M75.56 70.7001C75.56 70.7001 81 71.2801 84.26 67.1201" stroke="#8B8B8B" stroke-miterlimit="10" stroke-linecap="round" stroke-linejoin="round"/>
<path d="M51.22 46.4901C47.88 46.4901 45.16 43.7801 45.16 40.4401C45.16 37.1001 47.87 34.3901 51.22 34.3901C53.56 34.3901 55.59 35.7101 56.6 37.6501" stroke="#8B8B8B" stroke-miterlimit="10" stroke-linecap="round" stroke-linejoin="round"/>
<path d="M77.57 44.9302C77.57 44.9302 84.15 47.7402 84.29 52.4502" stroke="#8B8B8B" stroke-miterlimit="10" stroke-linecap="round" stroke-linejoin="round"/>
<path d="M97.85 36.55C99.4405 36.55 100.73 35.2606 100.73 33.67C100.73 32.0795 99.4405 30.79 97.85 30.79C96.2594 30.79 94.97 32.0795 94.97 33.67C94.97 35.2606 96.2594 36.55 97.85 36.55Z" stroke="#8B8B8B" stroke-miterlimit="10" stroke-linecap="round" stroke-linejoin="round"/>
<path d="M92.75 46.22V53.63C92.75 56.38 94.98 58.61 97.73 58.61H115.26" stroke="#8B8B8B" stroke-miterlimit="10" stroke-linecap="round" stroke-linejoin="round"/>
<g opacity="0.7">
<path opacity="0.7" d="M100.76 65.3C101.594 65.3 102.27 64.624 102.27 63.79C102.27 62.9561 101.594 62.28 100.76 62.28C99.9261 62.28 99.25 62.9561 99.25 63.79C99.25 64.624 99.9261 65.3 100.76 65.3Z" fill="url(#paint1_linear_996_241)"/>
</g>
<g opacity="0.7">
<path opacity="0.7" d="M106.17 65.8501C107.142 65.8501 107.93 65.0621 107.93 64.0901C107.93 63.1181 107.142 62.3301 106.17 62.3301C105.198 62.3301 104.41 63.1181 104.41 64.0901C104.41 65.0621 105.198 65.8501 106.17 65.8501Z" fill="url(#paint2_linear_996_241)"/>
</g>
<path d="M100.76 65.6499C101.738 65.6499 102.53 64.8574 102.53 63.8799C102.53 62.9023 101.738 62.1099 100.76 62.1099C99.7825 62.1099 98.9901 62.9023 98.9901 63.8799C98.9901 64.8574 99.7825 65.6499 100.76 65.6499Z" stroke="#8B8B8B" stroke-miterlimit="10" stroke-linecap="round" stroke-linejoin="round"/>
<path d="M106.11 65.6499C107.088 65.6499 107.88 64.8574 107.88 63.8799C107.88 62.9023 107.088 62.1099 106.11 62.1099C105.132 62.1099 104.34 62.9023 104.34 63.8799C104.34 64.8574 105.132 65.6499 106.11 65.6499Z" stroke="#8B8B8B" stroke-miterlimit="10" stroke-linecap="round" stroke-linejoin="round"/>
<path d="M115.36 62.1799H111.3C110.53 62.1799 109.91 62.9999 109.91 64.0199C109.91 65.0299 110.53 65.8599 111.3 65.8599H115.36" stroke="#8B8B8B" stroke-miterlimit="10" stroke-linecap="round" stroke-linejoin="round"/>
<path d="M115.36 69.1799H93.3C92.53 69.1799 91.91 69.9999 91.91 71.0199C91.91 72.0299 92.53 72.8599 93.3 72.8599H115.36" stroke="#8B8B8B" stroke-miterlimit="10" stroke-linecap="round" stroke-linejoin="round"/>
<path d="M108.81 14.3601L107.24 16.3201" stroke="#8B8B8B" stroke-miterlimit="10" stroke-linecap="round" stroke-linejoin="round"/>
<path d="M112.716 13.9296C113.684 12.796 113.558 11.0975 112.432 10.1359C111.307 9.17424 109.61 9.31363 108.641 10.4472C107.672 11.5808 107.799 13.2793 108.924 14.241C110.049 15.2026 111.747 15.0632 112.716 13.9296Z" fill="#FF8853"/>
<path d="M112.716 13.9296C113.684 12.796 113.558 11.0975 112.432 10.1359C111.307 9.17424 109.61 9.31363 108.641 10.4472C107.672 11.5808 107.799 13.2793 108.924 14.241C110.049 15.2026 111.747 15.0632 112.716 13.9296Z" stroke="#8B8B8B" stroke-miterlimit="10" stroke-linecap="round" stroke-linejoin="round"/>
<path d="M48.39 19.0901H44.46V23.0201H48.39V19.0901Z" stroke="#8B8B8B" stroke-miterlimit="10" stroke-linecap="round" stroke-linejoin="round"/>
<path d="M54.14 19.0901H50.21V23.0201H54.14V19.0901Z" stroke="#8B8B8B" stroke-miterlimit="10" stroke-linecap="round" stroke-linejoin="round"/>
<path d="M48.39 24.8201H44.46V28.7501H48.39V24.8201Z" stroke="#8B8B8B" stroke-miterlimit="10" stroke-linecap="round" stroke-linejoin="round"/>
<path d="M54.14 24.8201H50.21V28.7501H54.14V24.8201Z" stroke="#8B8B8B" stroke-miterlimit="10" stroke-linecap="round" stroke-linejoin="round"/>
<path d="M48.39 24.8201H44.46V28.7501H48.39V24.8201Z" stroke="#8B8B8B" stroke-miterlimit="10" stroke-linecap="round" stroke-linejoin="round"/>
<path d="M54.14 24.8201H50.21V28.7501H54.14V24.8201Z" stroke="#8B8B8B" stroke-miterlimit="10" stroke-linecap="round" stroke-linejoin="round"/>
<defs>
<linearGradient id="paint0_linear_996_241" x1="45.2453" y1="40.4395" x2="56.4015" y2="40.4395" gradientUnits="userSpaceOnUse">
<stop stop-color="#FF7002"/>
<stop offset="0.2957" stop-color="#FE7304"/>
<stop offset="0.4996" stop-color="#FC7C0A"/>
<stop offset="0.6759" stop-color="#F88B15"/>
<stop offset="0.8364" stop-color="#F3A125"/>
<stop offset="0.9849" stop-color="#ECBD39"/>
<stop offset="1" stop-color="#EBC03B"/>
</linearGradient>
<linearGradient id="paint1_linear_996_241" x1="102.265" y1="63.7862" x2="99.2527" y2="63.7862" gradientUnits="userSpaceOnUse">
<stop stop-color="#FF7002"/>
<stop offset="0.2957" stop-color="#FE7304"/>
<stop offset="0.4996" stop-color="#FC7C0A"/>
<stop offset="0.6759" stop-color="#F88B15"/>
<stop offset="0.8364" stop-color="#F3A125"/>
<stop offset="0.9849" stop-color="#ECBD39"/>
<stop offset="1" stop-color="#EBC03B"/>
</linearGradient>
<linearGradient id="paint2_linear_996_241" x1="107.928" y1="64.0913" x2="104.409" y2="64.0913" gradientUnits="userSpaceOnUse">
<stop stop-color="#FF7002"/>
<stop offset="0.2957" stop-color="#FE7304"/>
<stop offset="0.4996" stop-color="#FC7C0A"/>
<stop offset="0.6759" stop-color="#F88B15"/>
<stop offset="0.8364" stop-color="#F3A125"/>
<stop offset="0.9849" stop-color="#ECBD39"/>
<stop offset="1" stop-color="#EBC03B"/>
</linearGradient>
</defs>
</svg>
