<svg width="140" height="120" viewBox="0 0 140 120" fill="none" xmlns="http://www.w3.org/2000/svg">
<g clip-path="url(#clip0_1927_32)">
<path d="M69.53 59.6601H65.46C65.22 59.6601 65.03 59.4701 65.03 59.2301V55.0201C65.03 54.7801 65.22 54.5901 65.46 54.5901H69.53C69.77 54.5901 69.96 54.7801 69.96 55.0201V59.2301C69.96 59.4701 69.77 59.6601 69.53 59.6601Z" stroke="var(--illustration-stroke-color, #686868)" stroke-miterlimit="10" stroke-linecap="round" stroke-linejoin="round"/>
<path opacity="0.3" d="M80.98 108.2C89.08 108.72 91.96 110.7 91.96 112.59C91.96 115.51 79.2 117.87 63.46 117.87C47.72 117.87 34.96 115.51 34.96 112.59C34.96 111.13 39.37 109.38 44.56 108.68C45.27 108.58 46.95 114.66 48.92 114.47C50.24 114.35 51.56 115.23 53.67 115.11C54.82 115.04 59.12 112.75 59.66 107.67C59.78 106.52 58.61 107.73 59.91 107.7C61.35 107.67 62.85 107.65 64.44 107.65C65.36 107.65 65.99 112.52 68.44 113.05C70.02 113.39 73.29 113.29 75.05 113.35C76.34 113.39 79.17 108.14 79.7 108.17C81.19 108.28 79.38 108.1 80.98 108.2Z" fill="#262626"/>
<path d="M63.27 50.9101C56.1 50.0201 50.87 44.6801 50.7 39.2301C50.51 33.1801 50.7 28.2701 65.35 27.8101C75.46 27.5001 78.87 29.9501 80.05 33.6201" stroke="var(--illustration-stroke-color, #686868)" stroke-miterlimit="10" stroke-linecap="round" stroke-linejoin="round"/>
<path d="M59.26 51.03C59.83 51.08 60.3999 51.11 60.9799 51.11C62.4699 51.11 63.92 50.94 65.31 50.62C65.31 50.62 71.28 50.09 76.97 42.61C79.22 39.65 80.2599 35.82 80.2599 31.83C80.2599 21.18 71.63 12.54 60.97 12.54C50.31 12.54 41.7 21.17 41.7 31.82C41.7 40.26 47.12 47.44 54.68 50.05" stroke="var(--illustration-stroke-color, #686868)" stroke-miterlimit="10" stroke-linecap="round" stroke-linejoin="round"/>
<path d="M61.66 10.04L61.51 12.55" stroke="var(--illustration-stroke-color, #686868)" stroke-miterlimit="10" stroke-linecap="round" stroke-linejoin="round"/>
<path d="M64.5963 7.43999C64.7292 5.95478 63.6418 4.64388 62.1676 4.512C60.6934 4.38012 59.3906 5.47721 59.2578 6.96241C59.1249 8.44761 60.2123 9.75852 61.6865 9.8904C63.1607 10.0223 64.4635 8.92519 64.5963 7.43999Z" fill="#FF8853"/>
<path d="M64.5963 7.43999C64.7292 5.95478 63.6418 4.64388 62.1676 4.512C60.6934 4.38012 59.3906 5.47721 59.2578 6.96241C59.1249 8.44761 60.2123 9.75852 61.6865 9.8904C63.1607 10.0223 64.4635 8.92519 64.5963 7.43999Z" stroke="var(--illustration-stroke-color, #686868)" stroke-miterlimit="10" stroke-linecap="round" stroke-linejoin="round"/>
<path d="M80.39 31.78L82.49 32.34C82.98 32.56 83.3 33.09 83.3 33.67V36.35C83.3 37 82.9 37.57 82.33 37.74L79.53 38.58" stroke="var(--illustration-stroke-color, #686868)" stroke-miterlimit="10" stroke-linecap="round" stroke-linejoin="round"/>
<path d="M41.58 31.0601L39.42 32.0401C38.93 32.2601 38.61 32.7901 38.61 33.3701V36.0501C38.61 36.7001 39.01 37.2701 39.58 37.4401L42.38 38.2801" stroke="var(--illustration-stroke-color, #686868)" stroke-miterlimit="10" stroke-linecap="round" stroke-linejoin="round"/>
<path d="M44.98 72.54L44.89 78.79L44.69 105.62C44.55 111.31 47.31 114.72 52.11 114.64L52.66 114.63C53.79 114.61 54.88 114.34 55.85 113.86C58.11 112.74 59.54 110.43 59.8 107.92L61.6 88.7L66.38 86.91" stroke="var(--illustration-stroke-color, #686868)" stroke-miterlimit="10" stroke-linecap="round" stroke-linejoin="round"/>
<path d="M43.11 46.4199C43.11 46.4199 46.17 47.5399 45.6 56.7699" stroke="var(--illustration-stroke-color, #686868)" stroke-miterlimit="10" stroke-linecap="round" stroke-linejoin="round"/>
<path d="M48.7 53.5199C49.37 49.1199 49 48.4299 48.29 46.3999" stroke="var(--illustration-stroke-color, #686868)" stroke-miterlimit="10" stroke-linecap="round" stroke-linejoin="round"/>
<path d="M77.42 58.9099C78.35 74.4199 80.33 98.0199 79.74 106.7C79.47 110.66 76.23 113.75 72.26 113.81C68.36 113.87 65.04 110.96 64.59 107.08L64.37 88.5499" stroke="var(--illustration-stroke-color, #686868)" stroke-miterlimit="10" stroke-linecap="round" stroke-linejoin="round"/>
<path d="M111.76 50.3401L111.69 70.4001" stroke="var(--illustration-stroke-color, #686868)" stroke-miterlimit="10" stroke-linecap="round" stroke-linejoin="round"/>
<path d="M111.69 50.3L104.69 57.3C104.69 57.3 105.01 77.71 104.69 77.39L111.69 70.39" stroke="var(--illustration-stroke-color, #686868)" stroke-miterlimit="10" stroke-linecap="round" stroke-linejoin="round"/>
<path d="M85.55 54.6901H103.48L109.48 48.8301H103.46" stroke="var(--illustration-stroke-color, #686868)" stroke-miterlimit="10" stroke-linecap="round" stroke-linejoin="round"/>
<path d="M102.08 57.5801H82.74V77.9201H102.08V57.5801Z" stroke="var(--illustration-stroke-color, #686868)" stroke-miterlimit="10" stroke-linecap="round" stroke-linejoin="round"/>
<path d="M77.5101 61.9199C76.9701 59.8999 74.1501 50.03 74.4401 45.45" stroke="var(--illustration-stroke-color, #686868)" stroke-miterlimit="10" stroke-linecap="round" stroke-linejoin="round"/>
<path d="M76.15 43.96C76.15 43.96 86.01 40.17 98.46 41.69C101.54 42.07 103.71 44.92 103.35 48C103.02 50.89 100.57 53.04 97.67 53.06C92.33 53.1 80.77 54.15 77.48 58.98" stroke="var(--illustration-stroke-color, #686868)" stroke-miterlimit="10" stroke-linecap="round" stroke-linejoin="round"/>
<path d="M70.89 48.5701C70.89 48.5701 70.96 60.0201 77.26 62.7001" stroke="var(--illustration-stroke-color, #686868)" stroke-miterlimit="10" stroke-linecap="round" stroke-linejoin="round"/>
<path d="M45.58 43.9299C45.58 43.9299 27.3 58.7999 37.69 69.8899C39.68 72.0099 42.67 72.9499 45.49 72.2299C45.53 72.2199 45.57 72.2099 45.62 72.1999C47.21 71.7799 48.65 70.9099 49.86 69.7999L55.42 64.6999C56.96 63.2899 58.36 61.7199 59.53 59.9899C60.89 57.9699 61.19 56.8099 60.77 54.5899C60.62 53.7899 60.34 53.0199 59.97 52.2999L59.87 52.0999C57.61 49.1899 53.37 49.8299 50.41 52.0399L42.14 61.1499" stroke="var(--illustration-stroke-color, #686868)" stroke-miterlimit="10" stroke-linecap="round" stroke-linejoin="round"/>
<g opacity="0.7">
<path opacity="0.7" d="M91.32 68.51V68.3C91.32 67.73 91.37 67.27 91.46 66.93C91.55 66.59 91.7 66.32 91.88 66.11C92.06 65.9 92.29 65.71 92.55 65.54C92.76 65.41 92.95 65.27 93.12 65.13C93.29 64.99 93.42 64.84 93.52 64.68C93.62 64.52 93.67 64.34 93.67 64.13C93.67 63.93 93.62 63.76 93.53 63.61C93.44 63.46 93.31 63.34 93.14 63.26C92.98 63.18 92.8 63.14 92.6 63.14C92.4 63.14 92.22 63.19 92.04 63.28C91.87 63.37 91.73 63.5 91.62 63.66C91.51 63.83 91.45 64.03 91.45 64.26H89.13C89.14 63.55 89.3 62.98 89.62 62.53C89.94 62.08 90.36 61.75 90.88 61.53C91.4 61.31 91.98 61.21 92.61 61.21C93.3 61.21 93.92 61.32 94.46 61.53C95 61.74 95.42 62.06 95.73 62.48C96.04 62.9 96.19 63.41 96.19 64.02C96.19 64.42 96.12 64.77 95.99 65.08C95.86 65.39 95.67 65.66 95.43 65.89C95.19 66.12 94.91 66.34 94.59 66.53C94.34 66.68 94.13 66.83 93.96 66.99C93.79 67.15 93.67 67.33 93.58 67.54C93.5 67.75 93.45 68 93.45 68.3V68.51H91.32V68.51ZM92.43 72.82C92.07 72.82 91.76 72.69 91.5 72.44C91.24 72.18 91.12 71.88 91.12 71.51C91.12 71.15 91.24 70.85 91.5 70.59C91.76 70.34 92.07 70.21 92.43 70.21C92.78 70.21 93.08 70.34 93.34 70.59C93.6 70.84 93.73 71.15 93.74 71.51C93.74 71.75 93.67 71.97 93.55 72.17C93.43 72.37 93.27 72.53 93.07 72.64C92.87 72.75 92.66 72.82 92.43 72.82Z" fill="url(#paint0_linear_1927_32)"/>
</g>
<path d="M91.32 68.51V68.3C91.32 67.73 91.37 67.27 91.46 66.93C91.55 66.59 91.7 66.32 91.88 66.11C92.06 65.9 92.29 65.71 92.55 65.54C92.76 65.41 92.95 65.27 93.12 65.13C93.29 64.99 93.42 64.84 93.52 64.68C93.62 64.52 93.67 64.34 93.67 64.13C93.67 63.93 93.62 63.76 93.53 63.61C93.44 63.46 93.31 63.34 93.14 63.26C92.98 63.18 92.8 63.14 92.6 63.14C92.4 63.14 92.22 63.19 92.04 63.28C91.87 63.37 91.73 63.5 91.62 63.66C91.51 63.83 91.45 64.03 91.45 64.26H89.13C89.14 63.55 89.3 62.98 89.62 62.53C89.94 62.08 90.36 61.75 90.88 61.53C91.4 61.31 91.98 61.21 92.61 61.21C93.3 61.21 93.92 61.32 94.46 61.53C95 61.74 95.42 62.06 95.73 62.48C96.04 62.9 96.19 63.41 96.19 64.02C96.19 64.42 96.12 64.77 95.99 65.08C95.86 65.39 95.67 65.66 95.43 65.89C95.19 66.12 94.91 66.34 94.59 66.53C94.34 66.68 94.13 66.83 93.96 66.99C93.79 67.15 93.67 67.33 93.58 67.54C93.5 67.75 93.45 68 93.45 68.3V68.51H91.32V68.51ZM92.43 72.82C92.07 72.82 91.76 72.69 91.5 72.44C91.24 72.18 91.12 71.88 91.12 71.51C91.12 71.15 91.24 70.85 91.5 70.59C91.76 70.34 92.07 70.21 92.43 70.21C92.78 70.21 93.08 70.34 93.34 70.59C93.6 70.84 93.73 71.15 93.74 71.51C93.74 71.75 93.67 71.97 93.55 72.17C93.43 72.37 93.27 72.53 93.07 72.64C92.87 72.75 92.66 72.82 92.43 72.82Z" stroke="var(--illustration-stroke-color, #686868)" stroke-miterlimit="10" stroke-linecap="round" stroke-linejoin="round"/>
</g>
<defs>
<linearGradient id="paint0_linear_1927_32" x1="89.1303" y1="67.0181" x2="96.1972" y2="67.0181" gradientUnits="userSpaceOnUse">
<stop stop-color="#FF7002"/>
<stop offset="0.2957" stop-color="#FE7304"/>
<stop offset="0.4996" stop-color="#FC7C0A"/>
<stop offset="0.6759" stop-color="#F88B15"/>
<stop offset="0.8364" stop-color="#F3A125"/>
<stop offset="0.9849" stop-color="#ECBD39"/>
<stop offset="1" stop-color="#EBC03B"/>
</linearGradient>
<clipPath id="clip0_1927_32">
<rect width="78.26" height="113.87" fill="white" transform="translate(34 4)"/>
</clipPath>
</defs>
</svg>
