<svg width="140" height="120" viewBox="0 0 140 120" fill="none" xmlns="http://www.w3.org/2000/svg">
<g style="mix-blend-mode:multiply" opacity="0.2">
<path d="M40.49 117.52C48.2882 117.52 54.61 116.821 54.61 115.96C54.61 115.098 48.2882 114.4 40.49 114.4C32.6917 114.4 26.37 115.098 26.37 115.96C26.37 116.821 32.6917 117.52 40.49 117.52Z" fill="#262626"/>
</g>
<path d="M97.0801 114.33H94.5801C94.3001 114.33 94.0801 114.11 94.0801 113.83V106.33L93.27 106.24C93.04 106.21 92.8601 106.03 92.8301 105.81L92.7201 104.97L91.9 104.87C91.67 104.84 91.5001 104.66 91.4701 104.44L91.37 103.62L90.52 103.51C90.29 103.48 90.1101 103.3 90.0901 103.07L90 102.28L89.16 102.16C88.93 102.13 88.75 101.94 88.73 101.71L88.67 100.98L87.92 100.9C87.67 100.87 87.4701 100.66 87.4701 100.4V92.6C87.4701 92.32 87.6901 92.1 87.9701 92.1H89.0601C89.3401 92.1 89.5601 92.32 89.5601 92.6V94.64L90.4501 94.79C90.6601 94.83 90.83 95 90.86 95.22L90.9601 95.97L91.79 96.06C92.02 96.09 92.2 96.27 92.23 96.5L92.3201 97.27H94.03L94.17 96.49C94.21 96.28 94.3801 96.12 94.5901 96.09L95.3401 95.97L95.4401 95.27C95.4601 95.13 95.54 95 95.67 94.92C96.03 94.69 96.46 94.7 96.85 94.71C97.03 94.71 97.4001 94.73 97.4601 94.66C97.4601 94.66 97.5601 94.54 97.4601 94.02C97.4301 93.88 97.4701 93.73 97.5601 93.62C97.6501 93.51 97.7801 93.44 97.9301 93.43L99.42 93.35L99.54 92.54C99.57 92.32 99.7501 92.15 99.9701 92.12L100.77 92.01V83.98C100.77 83.74 100.94 83.53 101.18 83.49L102.06 83.33L102.19 82.47C102.23 82.23 102.44 82.04 102.68 82.04H113.16C113.42 82.04 113.63 82.24 113.66 82.49L113.74 83.31L114.57 83.44C114.81 83.48 114.99 83.69 114.99 83.93V85.07C114.99 86.45 115 87.87 114.95 89.28C114.93 89.86 114.05 90.19 113.69 90.2C112.55 90.23 111.41 90.23 110.26 90.22H108.95C108.74 90.22 108.47 90.22 108.31 90.24C108.31 90.33 108.34 90.47 108.36 90.62H111.78C112.06 90.62 112.28 90.84 112.28 91.12V92.45C112.28 92.73 112.06 92.95 111.78 92.95H107.07V94.7H109.07C109.35 94.7 109.57 94.92 109.57 95.2V97.7C109.57 97.98 109.35 98.2 109.07 98.2H108.03C107.76 98.2 107.55 97.99 107.53 97.73C107.52 97.53 107.49 96.99 107.37 96.91C107.37 96.91 107.29 96.86 107.06 96.91V101.04C107.06 101.3 106.86 101.52 106.6 101.54L105.69 101.62V103C105.69 103.25 105.5 103.46 105.26 103.5L104.33 103.62L104.25 104.43C104.23 104.67 104.04 104.86 103.81 104.88L103.02 104.97V107.5L103.82 107.61C104.06 107.64 104.24 107.84 104.25 108.08L104.31 109.19C104.32 109.33 104.27 109.46 104.17 109.56C104.08 109.66 103.94 109.72 103.81 109.72H101.24C100.96 109.72 100.74 109.5 100.74 109.22V107.69L99.9401 107.59C99.7201 107.56 99.54 107.38 99.51 107.16L99.41 106.39H99.04C99.01 106.86 98.8601 107.21 98.5801 107.44C98.3301 107.65 98.01 107.74 97.63 107.72L97.5701 108.4C97.5501 108.63 97.37 108.82 97.15 108.85L96.35 108.97V112.13L97.14 112.23C97.39 112.26 97.5801 112.47 97.5801 112.73V113.86C97.5801 114.11 97.3501 114.33 97.0801 114.33ZM95.0801 113.33H96.5801V113.14L95.79 113.04C95.54 113.01 95.35 112.8 95.35 112.54V108.51C95.35 108.26 95.53 108.05 95.78 108.02L96.62 107.9L96.6901 107.07C96.7001 106.92 96.78 106.79 96.9 106.7C97.02 106.61 97.1801 106.59 97.3201 106.63C97.6801 106.73 97.8701 106.71 97.9401 106.65C98.0101 106.59 98.08 106.36 98.03 105.92C98.01 105.78 98.06 105.64 98.15 105.53C98.24 105.42 98.38 105.36 98.52 105.36H99.8401C100.09 105.36 100.3 105.55 100.34 105.79L100.45 106.61L101.31 106.72C101.56 106.75 101.75 106.96 101.75 107.22V108.69H103.29L103.28 108.52L102.55 108.42C102.3 108.39 102.03 108.16 102.03 107.91V104.5C102.03 104.25 102.22 104.03 102.48 104L103.31 103.91L103.39 103.1C103.41 102.87 103.59 102.68 103.82 102.65L104.71 102.53V101.13C104.71 100.87 104.91 100.65 105.17 100.63L106.08 100.55V96.51C106.08 96.3 106.21 96.12 106.4 96.04C107.05 95.79 107.56 95.79 107.94 96.03C108.34 96.29 108.47 96.73 108.52 97.16H108.6V95.66H106.6C106.32 95.66 106.1 95.44 106.1 95.16V92.41C106.1 92.13 106.32 91.91 106.6 91.91H111.31V91.6H107.97C107.73 91.6 107.52 91.43 107.48 91.19C107.32 90.36 107.24 89.91 107.53 89.55C107.82 89.2 108.28 89.2 108.97 89.2H110.28C111.41 89.2 112.54 89.21 113.68 89.18C113.74 89.18 113.88 89.12 113.97 89.06C114.01 87.72 114.01 86.36 114 85.05V84.34L113.21 84.22C112.98 84.18 112.81 84 112.79 83.77L112.72 83.02L103.09 83.05L102.98 83.8C102.95 84.01 102.78 84.18 102.57 84.22L101.75 84.37V92.42C101.75 92.67 101.57 92.88 101.32 92.92L100.46 93.04L100.34 93.88C100.3 94.11 100.11 94.29 99.87 94.31L98.5 94.39C98.5 94.71 98.4401 95.04 98.2201 95.31C97.8501 95.74 97.2801 95.73 96.8301 95.72C96.6901 95.72 96.53 95.71 96.4 95.72L96.29 96.48C96.26 96.7 96.09 96.87 95.87 96.9L95.11 97.02L94.9601 97.85C94.9201 98.09 94.7101 98.26 94.4701 98.26H91.9C91.65 98.26 91.43 98.07 91.4 97.82L91.3 97.01L90.4701 96.92C90.2401 96.9 90.06 96.72 90.03 96.49L89.9301 95.71L88.99 95.55C88.75 95.51 88.5701 95.3 88.5701 95.06V93.1H88.48V99.95L89.2001 100.03C89.4401 100.06 89.62 100.25 89.64 100.49L89.7001 101.23L90.53 101.34C90.75 101.37 90.9301 101.55 90.9601 101.78L91.05 102.57L91.9 102.68C92.13 102.71 92.3101 102.89 92.3301 103.11L92.4301 103.93L93.25 104.03C93.48 104.06 93.6501 104.24 93.6801 104.46L93.78 105.29L94.65 105.39C94.9 105.42 95.0901 105.63 95.0901 105.89V113.33H95.0801Z" fill="var(--illustration-stroke-color, #686868)"/>
<path d="M66.92 52.81C56.01 52.81 47.14 43.94 47.14 33.03C47.14 22.12 56.02 13.25 66.92 13.25C77.82 13.25 86.7001 22.12 86.7001 33.03C86.7001 43.93 77.83 52.81 66.92 52.81ZM66.92 14.24C56.56 14.24 48.14 22.67 48.14 33.02C48.14 43.37 56.57 51.8 66.92 51.8C77.28 51.8 85.7001 43.37 85.7001 33.02C85.7001 22.67 77.28 14.24 66.92 14.24Z" fill="var(--illustration-stroke-color, #686868)"/>
<path d="M69.4501 101.68C69.3501 101.68 69.2601 101.65 69.1801 101.6C66.2801 101.27 62.5601 97.01 60.0801 94.17C59.6401 93.67 59.25 93.22 58.92 92.86C58.73 92.66 58.7501 92.34 58.9501 92.15C59.1501 91.96 59.47 91.98 59.66 92.18C59.99 92.55 60.3901 93 60.8301 93.51C63.1101 96.12 66.9201 100.49 69.4301 100.61C69.5001 100.61 69.56 100.63 69.62 100.66L70.6801 100.59C70.7501 100.55 70.83 100.53 70.91 100.53C74.54 100.45 78.3801 98.51 78.6801 94.95C79.6401 83.53 79.47 72.39 78.99 48.27C78.98 47.99 79.2 47.77 79.48 47.76C79.71 47.76 79.98 47.97 79.99 48.25C80.47 72.4 80.6401 83.56 79.6801 95.03C79.3601 98.87 75.6301 101.09 71.8401 101.47C71.7701 101.51 71.69 101.53 71.61 101.53L69.49 101.66C69.47 101.68 69.4601 101.68 69.4501 101.68Z" fill="var(--illustration-stroke-color, #686868)"/>
<path d="M65.28 95.1699C65.08 95.1699 64.9 95.0499 64.82 94.8599L62.93 90.2599C62.83 89.9999 62.95 89.7099 63.2 89.6099C63.46 89.5099 63.7499 89.6299 63.8499 89.8799L65.7399 94.4799C65.8399 94.7399 65.72 95.0299 65.47 95.1299C65.41 95.1599 65.34 95.1699 65.28 95.1699Z" fill="var(--illustration-stroke-color, #686868)"/>
<path d="M48.8301 114.96C48.3801 114.96 47.92 114.93 47.43 114.88H46.9401C41.7101 114.41 39.7301 111.87 40.0901 106.14L43.48 77.38C43.51 77.11 43.76 76.91 44.03 76.94C44.3 76.97 44.5001 77.22 44.4701 77.5L41.0801 106.24C40.7601 111.39 42.36 113.48 46.98 113.9H47.48C50.82 114.27 53.0801 113.25 54.4401 110.8C54.8301 110.09 55.13 109.26 55.35 108.27L59.04 91.51C59.07 91.35 59.1801 91.22 59.3301 91.16L63.2101 89.44C63.4601 89.33 63.76 89.44 63.87 89.69C63.98 89.94 63.87 90.24 63.62 90.35L59.9701 91.97L56.3401 108.49C56.1001 109.58 55.7701 110.5 55.3301 111.29C53.9501 113.74 51.8201 114.96 48.8301 114.96Z" fill="var(--illustration-stroke-color, #686868)"/>
<path d="M48.14 66.7299C48.01 66.7299 47.89 66.6799 47.79 66.5799C47.59 66.3899 47.59 66.0699 47.79 65.8699C47.86 65.7999 53 60.2799 46.28 47.8399C46.15 47.5999 46.24 47.2899 46.48 47.1599C46.72 47.0299 47.03 47.1199 47.16 47.3599C54.28 60.5199 48.74 66.3299 48.5 66.5699C48.4 66.6799 48.27 66.7299 48.14 66.7299Z" fill="var(--illustration-stroke-color, #686868)"/>
<path d="M50.85 67.2501C50.74 67.2501 50.62 67.2101 50.53 67.1401C50.32 66.9601 50.2901 66.6501 50.4601 66.4401C50.5201 66.3601 56.8 58.5601 52.67 46.8001C52.58 46.5401 52.72 46.2501 52.98 46.1601C53.25 46.0701 53.53 46.2101 53.62 46.4701C57.94 58.7801 51.3 66.9901 51.23 67.0701C51.14 67.1901 51 67.2501 50.85 67.2501Z" fill="var(--illustration-stroke-color, #686868)"/>
<path d="M42.85 53.6699C42.58 53.6699 42.36 53.4599 42.35 53.1899L42.11 46.0299C42.11 44.4499 43.3801 43.1799 44.9401 43.1799H50C50.28 43.1799 50.5 43.3999 50.5 43.6799C50.5 43.9599 50.28 44.1799 50 44.1799H44.9401C43.9301 44.1799 43.11 44.9999 43.11 46.0099L43.35 53.1499C43.36 53.4299 43.14 53.6599 42.87 53.6699C42.87 53.6699 42.86 53.6699 42.85 53.6699Z" fill="var(--illustration-stroke-color, #686868)"/>
<path d="M59.36 80.98C59.34 80.98 59.3101 80.98 59.2901 80.98C48.0101 80.86 41.02 77.93 38.51 72.26C35.43 65.31 39.5501 54.68 49.8201 43.08C50.0001 42.87 50.3201 42.85 50.5301 43.04C50.7401 43.22 50.7601 43.54 50.5701 43.75C40.7201 54.87 36.5501 65.38 39.4301 71.86C41.7701 77.14 48.4601 79.87 59.3101 79.98C62.0101 80.01 64.2401 78.13 64.6801 75.51C64.9201 74.07 64.59 72.64 63.73 71.46C62.87 70.28 61.6101 69.52 60.1601 69.31L46.88 66.6C46.61 66.54 46.44 66.27 46.5 66C46.56 65.73 46.8301 65.56 47.1001 65.62L60.3401 68.32C62.0101 68.56 63.5101 69.47 64.5301 70.86C65.5501 72.25 65.9501 73.96 65.6601 75.67C65.1401 78.76 62.5 80.98 59.36 80.98Z" fill="var(--illustration-stroke-color, #686868)"/>
<path d="M84.54 74.3001C84.24 74.3001 83.95 74.2801 83.65 74.2301C82.57 74.0701 81.83 73.8401 80.89 73.5501C80.58 73.4501 80.24 73.3501 79.86 73.2401C79.6 73.1601 79.44 72.8901 79.52 72.6201C79.6 72.3601 79.87 72.2001 80.14 72.2801C80.53 72.3901 80.8701 72.5001 81.1901 72.5901C82.0901 72.8701 82.8001 73.0901 83.8001 73.2401C85.8801 73.5501 88.0001 72.5201 89.0701 70.6601C89.9001 69.2201 90 67.5201 89.35 66.0001C88.71 64.4801 87.4301 63.3901 85.8401 62.9801C82.8301 62.2201 81.25 61.3801 79.54 60.1901C79.31 60.0301 79.26 59.7201 79.41 59.4901C79.57 59.2601 79.88 59.2101 80.11 59.3601C81.72 60.4801 83.2201 61.2701 86.0901 62.0001C87.9901 62.4801 89.51 63.7901 90.28 65.6001C91.05 67.4201 90.9301 69.4401 89.9501 71.1501C88.8201 73.1101 86.72 74.3001 84.54 74.3001Z" fill="var(--illustration-stroke-color, #686868)"/>
<g style="mix-blend-mode:multiply" opacity="0.2">
<path d="M92.29 116.71C95.8909 116.71 98.8101 116.097 98.8101 115.34C98.8101 114.583 95.8909 113.97 92.29 113.97C88.6891 113.97 85.77 114.583 85.77 115.34C85.77 116.097 88.6891 116.71 92.29 116.71Z" fill="#262626"/>
</g>
<path d="M15.5701 115.21H12.3401C12.0601 115.21 11.8401 114.99 11.8401 114.71C11.8401 114.43 12.0601 114.21 12.3401 114.21H15.5701C15.8501 114.21 16.0701 114.43 16.0701 114.71C16.0701 114.99 15.8401 115.21 15.5701 115.21Z" fill="var(--illustration-stroke-color, #686868)"/>
<path d="M41.11 115.21H34.7201C34.4401 115.21 34.2201 114.99 34.2201 114.71C34.2201 114.43 34.4401 114.21 34.7201 114.21H41.11C41.39 114.21 41.61 114.43 41.61 114.71C41.61 114.99 41.39 115.21 41.11 115.21ZM28.3401 115.21H21.9501C21.6701 115.21 21.4501 114.99 21.4501 114.71C21.4501 114.43 21.6701 114.21 21.9501 114.21H28.3401C28.6201 114.21 28.8401 114.43 28.8401 114.71C28.8401 114.99 28.6201 115.21 28.3401 115.21Z" fill="var(--illustration-stroke-color, #686868)"/>
<path d="M117.76 115.21H111.37C111.09 115.21 110.87 114.99 110.87 114.71C110.87 114.43 111.09 114.21 111.37 114.21H117.76C118.04 114.21 118.26 114.43 118.26 114.71C118.26 114.99 118.04 115.21 117.76 115.21ZM104.99 115.21H98.6C98.32 115.21 98.1 114.99 98.1 114.71C98.1 114.43 98.32 114.21 98.6 114.21H104.99C105.27 114.21 105.49 114.43 105.49 114.71C105.49 114.99 105.26 115.21 104.99 115.21ZM92.2101 115.21H85.8201C85.5401 115.21 85.3201 114.99 85.3201 114.71C85.3201 114.43 85.5401 114.21 85.8201 114.21H92.2101C92.4901 114.21 92.7101 114.43 92.7101 114.71C92.7101 114.99 92.4901 115.21 92.2101 115.21ZM79.4401 115.21H73.05C72.77 115.21 72.55 114.99 72.55 114.71C72.55 114.43 72.77 114.21 73.05 114.21H79.4401C79.7201 114.21 79.9401 114.43 79.9401 114.71C79.9401 114.99 79.7101 115.21 79.4401 115.21ZM66.66 115.21H60.27C59.99 115.21 59.77 114.99 59.77 114.71C59.77 114.43 59.99 114.21 60.27 114.21H66.66C66.94 114.21 67.16 114.43 67.16 114.71C67.16 114.99 66.94 115.21 66.66 115.21ZM53.89 115.21H47.5C47.22 115.21 47 114.99 47 114.71C47 114.43 47.22 114.21 47.5 114.21H53.89C54.17 114.21 54.39 114.43 54.39 114.71C54.39 114.99 54.17 115.21 53.89 115.21Z" fill="var(--illustration-stroke-color, #686868)"/>
<path d="M127.38 115.21H124.15C123.87 115.21 123.65 114.99 123.65 114.71C123.65 114.43 123.87 114.21 124.15 114.21H127.38C127.66 114.21 127.88 114.43 127.88 114.71C127.88 114.99 127.66 115.21 127.38 115.21Z" fill="var(--illustration-stroke-color, #686868)"/>
<g opacity="0.7">
<path opacity="0.9" d="M19.62 25.39H37.8401C37.8401 25.39 38.6101 18.72 33.0901 19.86C33.0901 19.86 34.04 15.26 28.13 15.78C27.61 15.83 27.1 16.04 26.73 16.41C26.34 16.8 25.8101 17.13 25.6601 18.38C25.6601 18.38 21.9301 17.73 22.2201 21.38C22.2201 21.38 18.35 21.42 19.62 25.39Z" fill="url(#paint0_linear_818_1786)"/>
</g>
<g opacity="0.7">
<path opacity="0.9" d="M98.73 39.11H109.45C109.45 39.11 109.9 35.18 106.66 35.85C106.66 35.85 107.22 33.14 103.74 33.45C103.43 33.48 103.13 33.6 102.91 33.82C102.68 34.05 102.37 34.24 102.28 34.98C102.28 34.98 100.08 34.6 100.26 36.75C100.26 36.75 97.98 36.77 98.73 39.11Z" fill="url(#paint1_linear_818_1786)"/>
</g>
<path d="M37.5401 25.8901H19.3201C19.1001 25.8901 18.9101 25.7501 18.8401 25.5401C18.4001 24.1601 18.4801 23.0401 19.0801 22.2001C19.7201 21.3201 20.7701 21.0201 21.4001 20.9201C21.4101 19.9401 21.7101 19.1701 22.3001 18.6301C23.1201 17.8801 24.2701 17.8001 24.9301 17.8301C25.1401 16.9101 25.5801 16.5001 25.9101 16.1901L26.0601 16.0501C26.5001 15.6101 27.1101 15.3401 27.7701 15.2801C29.9201 15.0901 31.4801 15.5301 32.4201 16.5801C33.2101 17.4701 33.3401 18.5601 33.3301 19.2601C34.6501 19.1101 35.7301 19.4101 36.5401 20.1501C38.4101 21.8601 38.0401 25.3001 38.0201 25.4501C38.0101 25.7001 37.7901 25.8901 37.5401 25.8901ZM19.7001 24.8901H37.0701C37.1001 23.9901 37.0301 21.9401 35.8801 20.8901C35.2001 20.2601 34.1901 20.0801 32.9001 20.3501C32.7301 20.3801 32.5601 20.3301 32.4501 20.2101C32.3301 20.0901 32.2801 19.9201 32.3101 19.7601C32.3101 19.7401 32.6001 18.2501 31.6901 17.2401C30.9801 16.4401 29.6901 16.1201 27.8801 16.2801C27.4501 16.3201 27.0601 16.4901 26.7901 16.7601L26.6201 16.9201C26.2901 17.2301 25.97 17.5301 25.86 18.4301C25.84 18.5701 25.7701 18.6901 25.6601 18.7701C25.5501 18.8501 25.4101 18.8901 25.2801 18.8601C25.2701 18.8601 23.8 18.6201 22.99 19.3701C22.54 19.7801 22.3601 20.4401 22.4301 21.3301C22.4401 21.4701 22.3901 21.6001 22.3001 21.7101C22.2101 21.8101 22.0701 21.8701 21.9401 21.8701C21.9301 21.8701 20.5401 21.9001 19.9001 22.7901C19.5401 23.3001 19.4701 24.0001 19.7001 24.8901Z" fill="var(--illustration-stroke-color, #686868)"/>
<path d="M109.14 39.6099H98.42C98.2 39.6099 98.01 39.4699 97.94 39.2599C97.66 38.3799 97.72 37.6599 98.11 37.1099C98.47 36.6099 99.04 36.3999 99.44 36.3099C99.48 35.7499 99.68 35.3099 100.03 34.9799C100.51 34.5499 101.13 34.4499 101.56 34.4499C101.71 33.9599 101.97 33.7199 102.16 33.5399L102.24 33.4599C102.53 33.1699 102.94 32.9799 103.37 32.9499C104.7 32.8299 105.68 33.1099 106.28 33.7799C106.71 34.2599 106.84 34.8299 106.86 35.2699C107.61 35.2299 108.21 35.4299 108.69 35.8599C109.87 36.9399 109.64 39.0599 109.63 39.1499C109.61 39.4199 109.4 39.6099 109.14 39.6099ZM98.81 38.6099H108.66C108.66 37.9999 108.53 37.0799 108.02 36.6099C107.66 36.2899 107.15 36.1999 106.45 36.3399C106.28 36.3699 106.11 36.3199 105.99 36.1999C105.87 36.0799 105.82 35.9099 105.85 35.7399C105.85 35.7399 106 34.9499 105.53 34.4399C105.16 34.0299 104.45 33.8599 103.46 33.9399C103.25 33.9599 103.07 34.0399 102.94 34.1699L102.83 34.2699C102.65 34.4399 102.5 34.5799 102.45 35.0299C102.43 35.1699 102.36 35.2899 102.25 35.3699C102.14 35.4499 102 35.4799 101.87 35.4599C101.66 35.4199 101.03 35.3999 100.7 35.7099C100.49 35.8999 100.4 36.2399 100.44 36.6899C100.45 36.8299 100.4 36.9699 100.31 37.0699C100.22 37.1699 100.08 37.2299 99.95 37.2299C99.75 37.2299 99.17 37.3199 98.92 37.6799C98.78 37.9199 98.74 38.2199 98.81 38.6099Z" fill="var(--illustration-stroke-color, #686868)"/>
<path d="M35.98 80.8999H19.5701C19.2901 80.8999 19.0701 80.6799 19.0701 80.3999C19.0701 80.1199 19.2901 79.8999 19.5701 79.8999H35.98C36.26 79.8999 36.48 80.1199 36.48 80.3999C36.48 80.6799 36.26 80.8999 35.98 80.8999Z" fill="var(--illustration-stroke-color, #686868)"/>
<path d="M35.98 74.4399H26.03C25.75 74.4399 25.53 74.2199 25.53 73.9399C25.53 73.6599 25.75 73.4399 26.03 73.4399H35.98C36.26 73.4399 36.48 73.6599 36.48 73.9399C36.48 74.2199 36.26 74.4399 35.98 74.4399Z" fill="var(--illustration-stroke-color, #686868)"/>
<path d="M77.5601 46.78C71.9901 46.78 64.21 44.95 62.88 35.1C62.73 33.97 62.76 31.88 63.48 30.75C64.69 28.83 67.9201 25.52 75.9501 24.95C80.2501 24.64 82.9601 24.57 84.9601 25.05C85.2301 25.12 85.3901 25.39 85.3301 25.65C85.2701 25.92 84.99 26.08 84.73 26.02C82.86 25.56 80.2301 25.64 76.0301 25.94C68.4501 26.49 65.4501 29.52 64.3401 31.28C63.8601 32.04 63.7301 33.79 63.8901 34.96C64.5301 39.67 67.6201 47.32 81.0501 45.54C81.3201 45.5 81.58 45.7 81.61 45.97C81.65 46.24 81.4501 46.49 81.1801 46.53C80.1801 46.67 78.9401 46.78 77.5601 46.78Z" fill="var(--illustration-stroke-color, #686868)"/>
<path d="M66.8599 13.87C66.5899 13.87 66.3699 13.66 66.3599 13.39L66.28 10.88C66.27 10.6 66.49 10.37 66.76 10.36C67.06 10.33 67.27 10.57 67.28 10.84L67.3599 13.35C67.3699 13.63 67.15 13.86 66.88 13.87C66.87 13.87 66.8599 13.87 66.8599 13.87Z" fill="var(--illustration-stroke-color, #686868)"/>
<path d="M66.79 11.19C65.04 11.19 63.61 9.76004 63.61 7.99004C63.61 6.22004 65.04 4.79004 66.79 4.79004C68.54 4.79004 69.9701 6.22004 69.9701 7.99004C69.9701 9.76004 68.55 11.19 66.79 11.19Z" fill="#FF8853"/>
<path d="M66.79 11.19C65.04 11.19 63.61 9.76004 63.61 7.99004C63.61 6.22004 65.04 4.79004 66.79 4.79004C68.54 4.79004 69.9701 6.22004 69.9701 7.99004C69.9701 9.76004 68.55 11.19 66.79 11.19ZM66.79 5.80004C65.59 5.80004 64.61 6.78004 64.61 8.00004C64.61 9.22004 65.59 10.2 66.79 10.2C67.99 10.2 68.9701 9.22004 68.9701 8.00004C68.9701 6.78004 67.99 5.80004 66.79 5.80004Z" fill="var(--illustration-stroke-color, #686868)"/>
<path d="M105.62 84.4001H104.07V85.9902H105.62V84.4001Z" fill="var(--illustration-stroke-color, #686868)"/>
<path d="M74.8301 62.6401H70.76C70.25 62.6401 69.8301 62.2201 69.8301 61.7101V57.5001C69.8301 56.9901 70.25 56.5701 70.76 56.5701H74.8301C75.3401 56.5701 75.76 56.9901 75.76 57.5001V61.7101C75.76 62.2201 75.3401 62.6401 74.8301 62.6401ZM74.76 57.5001L70.76 57.5701L70.8301 61.7101L74.76 61.6401V57.5001Z" fill="var(--illustration-stroke-color, #686868)"/>
<path d="M54.92 37.8301C53.05 37.8301 51.54 36.3101 51.54 34.4501C51.54 32.5801 53.06 31.0701 54.92 31.0701C56.78 31.0701 58.3 32.5901 58.3 34.4501C58.3 36.3101 56.78 37.8301 54.92 37.8301ZM54.92 32.0601C53.61 32.0601 52.54 33.1301 52.54 34.4401C52.54 35.7501 53.61 36.8201 54.92 36.8201C56.23 36.8201 57.3 35.7501 57.3 34.4401C57.3 33.1301 56.23 32.0601 54.92 32.0601Z" fill="var(--illustration-stroke-color, #686868)"/>
<defs>
<linearGradient id="paint0_linear_818_1786" x1="19.3667" y1="20.567" x2="37.8769" y2="20.567" gradientUnits="userSpaceOnUse">
<stop stop-color="#FF7002"/>
<stop offset="0.2957" stop-color="#FE7304"/>
<stop offset="0.4996" stop-color="#FC7C0A"/>
<stop offset="0.6759" stop-color="#F88B15"/>
<stop offset="0.8364" stop-color="#F3A125"/>
<stop offset="0.9849" stop-color="#ECBD39"/>
<stop offset="1" stop-color="#EBC03B"/>
</linearGradient>
<linearGradient id="paint1_linear_818_1786" x1="98.5759" y1="36.2679" x2="109.467" y2="36.2679" gradientUnits="userSpaceOnUse">
<stop stop-color="#FF7002"/>
<stop offset="0.2957" stop-color="#FE7304"/>
<stop offset="0.4996" stop-color="#FC7C0A"/>
<stop offset="0.6759" stop-color="#F88B15"/>
<stop offset="0.8364" stop-color="#F3A125"/>
<stop offset="0.9849" stop-color="#ECBD39"/>
<stop offset="1" stop-color="#EBC03B"/>
</linearGradient>
</defs>
</svg>
